<svg xmlns="http://www.w3.org/2000/svg" width="64" height="64" viewBox="0 0 64 64">
  <defs>
    <!-- High-res gradient for the main note -->
    <linearGradient id="noteGradientHD" x1="0%" y1="0%" x2="100%" y2="100%">
      <stop offset="0%" stop-color="#667eea"/>
      <stop offset="50%" stop-color="#764ba2"/>
      <stop offset="100%" stop-color="#5a67d8"/>
    </linearGradient>
    
    <!-- Accent gradient for the pen -->
    <linearGradient id="penGradientHD" x1="0%" y1="0%" x2="100%" y2="100%">
      <stop offset="0%" stop-color="#f093fb"/>
      <stop offset="50%" stop-color="#f5576c"/>
      <stop offset="100%" stop-color="#e53e3e"/>
    </linearGradient>
    
    <!-- Enhanced shadow -->
    <filter id="shadowHD" x="-30%" y="-30%" width="160%" height="160%">
      <feDropShadow dx="2" dy="4" stdDeviation="2" flood-color="#000" flood-opacity="0.25"/>
    </filter>
  </defs>
  
  <!-- Main note paper -->
  <rect x="8" y="4" width="40" height="52" rx="4" ry="4" 
        fill="url(#noteGradientHD)" filter="url(#shadowHD)"/>
  
  <!-- Paper fold corner -->
  <path d="M40 4 L48 12 L40 12 Z" fill="#5a67d8" opacity="0.8"/>
  
  <!-- Note lines -->
  <line x1="14" y1="20" x2="36" y2="20" stroke="#fff" stroke-width="1.5" opacity="0.7"/>
  <line x1="14" y1="26" x2="42" y2="26" stroke="#fff" stroke-width="1.5" opacity="0.7"/>
  <line x1="14" y1="32" x2="38" y2="32" stroke="#fff" stroke-width="1.5" opacity="0.7"/>
  <line x1="14" y1="38" x2="34" y2="38" stroke="#fff" stroke-width="1.5" opacity="0.7"/>
  <line x1="14" y1="44" x2="40" y2="44" stroke="#fff" stroke-width="1.5" opacity="0.7"/>
  
  <!-- Modern pen -->
  <g transform="translate(40, 36) rotate(45)">
    <!-- Pen body -->
    <rect x="0" y="0" width="4" height="20" rx="2" fill="url(#penGradientHD)"/>
    <!-- Pen tip -->
    <circle cx="2" cy="20" r="2.5" fill="#2d3748"/>
    <!-- Pen highlight -->
    <rect x="0.6" y="2" width="0.8" height="14" rx="0.4" fill="#fff" opacity="0.5"/>
  </g>
  
  <!-- Enhanced sparkle effects -->
  <circle cx="52" cy="16" r="2" fill="#f093fb" opacity="0.9">
    <animate attributeName="opacity" values="0.9;0.4;0.9" dur="2s" repeatCount="indefinite"/>
  </circle>
  <circle cx="12" cy="48" r="1.5" fill="#667eea" opacity="0.7">
    <animate attributeName="opacity" values="0.7;0.3;0.7" dur="1.5s" repeatCount="indefinite"/>
  </circle>
  <circle cx="56" cy="44" r="1.2" fill="#f5576c" opacity="0.8">
    <animate attributeName="opacity" values="0.8;0.4;0.8" dur="1.8s" repeatCount="indefinite"/>
  </circle>
  <circle cx="10" cy="12" r="1" fill="#764ba2" opacity="0.6">
    <animate attributeName="opacity" values="0.6;0.2;0.6" dur="2.2s" repeatCount="indefinite"/>
  </circle>
</svg>
