<svg xmlns="http://www.w3.org/2000/svg" width="32" height="32" viewBox="0 0 32 32">
  <defs>
    <!-- Modern gradient for the main note -->
    <linearGradient id="noteGradient" x1="0%" y1="0%" x2="100%" y2="100%">
      <stop offset="0%" stop-color="#667eea"/>
      <stop offset="100%" stop-color="#764ba2"/>
    </linearGradient>
    
    <!-- Accent gradient for the pen -->
    <linearGradient id="penGradient" x1="0%" y1="0%" x2="100%" y2="100%">
      <stop offset="0%" stop-color="#f093fb"/>
      <stop offset="100%" stop-color="#f5576c"/>
    </linearGradient>
    
    <!-- Subtle shadow -->
    <filter id="shadow" x="-20%" y="-20%" width="140%" height="140%">
      <feDropShadow dx="1" dy="2" stdDeviation="1" flood-color="#000" flood-opacity="0.2"/>
    </filter>
  </defs>
  
  <!-- Main note paper -->
  <rect x="4" y="2" width="20" height="26" rx="2" ry="2" 
        fill="url(#noteGradient)" filter="url(#shadow)"/>
  
  <!-- Paper fold corner -->
  <path d="M20 2 L24 6 L20 6 Z" fill="#5a67d8" opacity="0.7"/>
  
  <!-- Note lines -->
  <line x1="7" y1="10" x2="18" y2="10" stroke="#fff" stroke-width="0.8" opacity="0.6"/>
  <line x1="7" y1="13" x2="21" y2="13" stroke="#fff" stroke-width="0.8" opacity="0.6"/>
  <line x1="7" y1="16" x2="19" y2="16" stroke="#fff" stroke-width="0.8" opacity="0.6"/>
  <line x1="7" y1="19" x2="17" y2="19" stroke="#fff" stroke-width="0.8" opacity="0.6"/>
  
  <!-- Modern pen -->
  <g transform="translate(20, 18) rotate(45)">
    <!-- Pen body -->
    <rect x="0" y="0" width="2" height="10" rx="1" fill="url(#penGradient)"/>
    <!-- Pen tip -->
    <circle cx="1" cy="10" r="1.2" fill="#2d3748"/>
    <!-- Pen highlight -->
    <rect x="0.3" y="1" width="0.4" height="7" rx="0.2" fill="#fff" opacity="0.4"/>
  </g>
  
  <!-- Sparkle effects for modern touch -->
  <circle cx="26" cy="8" r="1" fill="#f093fb" opacity="0.8">
    <animate attributeName="opacity" values="0.8;0.3;0.8" dur="2s" repeatCount="indefinite"/>
  </circle>
  <circle cx="6" cy="24" r="0.8" fill="#667eea" opacity="0.6">
    <animate attributeName="opacity" values="0.6;0.2;0.6" dur="1.5s" repeatCount="indefinite"/>
  </circle>
  <circle cx="28" cy="22" r="0.6" fill="#f5576c" opacity="0.7">
    <animate attributeName="opacity" values="0.7;0.3;0.7" dur="1.8s" repeatCount="indefinite"/>
  </circle>
</svg>